<?xml version="1.0" encoding="UTF-8"?>
<svg version="1.1" xmlns="http://www.w3.org/2000/svg" width="2400" height="2400">
<path d="M0 0 C2.03587871 -0.006977 4.07175721 -0.01401798 6.1076355 -0.02111816 C12.57827015 -0.04040169 19.04887099 -0.04529358 25.51953125 -0.046875 C27.16993471 -0.04775871 27.16993471 -0.04775871 28.85367966 -0.04866028 C60.26520274 -0.06054366 91.52994591 0.07489009 122.83227539 2.97528076 C125.39965535 3.20928871 127.96796967 3.42733758 130.53710938 3.64111328 C171.07058215 7.02807585 211.3435464 12.80375198 251.33203125 20.203125 C252.1098999 20.34667419 252.88776855 20.49022339 253.68920898 20.63812256 C347.89032943 38.11283246 439.73163191 68.23930032 539.33203125 114.203125 C541.05897217 115.02031006 541.05897217 115.02031006 542.82080078 115.85400391 C567.46794966 127.54897767 591.73547191 139.88929557 615.38378906 153.50830078 C618.48339182 155.29013602 621.5908448 157.05773425 624.69921875 158.82421875 C646.96053697 171.51265448 668.44794596 185.19541113 689.76953125 199.390625 C690.6613208 199.98386566 691.55311035 200.57710632 692.47192383 201.18832397 C707.57303856 211.24501417 722.50168242 221.52670739 737.08203125 232.328125 C738.27058716 233.20658081 738.27058716 233.20658081 739.4831543 234.1027832 C746.16485071 239.05391957 752.77564749 244.08715888 759.33203125 249.203125 C760.14800781 249.83782715 760.14800781 249.83782715 760.98046875 250.48535156 C773.43940641 260.18121837 785.73754538 270.07783478 797.75024414 280.32250977 C801.06901361 283.14999195 804.43387139 285.90934788 807.83203125 288.640625 C813.21345329 293.01646745 818.27201694 297.69621315 823.33984375 302.42578125 C825.65443387 304.58390219 828.00098871 306.6948631 830.39453125 308.765625 C835.81226396 313.46249514 841.06745158 318.33644726 846.33203125 323.203125 C846.90158035 323.72910782 847.47112946 324.25509064 848.05793762 324.79701233 C858.43998762 334.40369415 868.54744862 344.26110083 878.53540039 354.27612305 C880.9202338 356.66638607 883.3104623 359.05116258 885.70117188 361.43554688 C887.24641497 362.98144982 888.79134834 364.52766243 890.3359375 366.07421875 C891.38763878 367.12288368 891.38763878 367.12288368 892.46058655 368.19273376 C896.38269658 372.13333553 900.12854734 376.16933671 903.74009705 380.39710999 C905.36909672 382.24517498 907.07329429 383.97878014 908.83203125 385.703125 C911.84616707 388.67047823 914.63120458 391.77657792 917.390625 394.98046875 C919.62007186 397.53289383 921.91204507 400.02200014 924.20703125 402.515625 C928.3512909 407.0548746 932.25781523 411.73770796 936.1171875 416.51953125 C938.28835952 419.15021057 940.53444482 421.68254924 942.83203125 424.203125 C947.53661468 429.37816677 951.93820515 434.76380062 956.33203125 440.203125 C957.36646569 441.46934003 958.40166747 442.73492843 959.4375 444 C965.70412504 451.66230164 971.86725123 459.38207549 977.85498047 467.26513672 C979.59121048 469.54318528 981.3386198 471.81247663 983.0859375 474.08203125 C990.93817554 484.30265878 998.58343104 494.62325987 1005.93603516 505.20849609 C1007.27466608 507.12116042 1008.63265191 509.01794721 1010 510.91015625 C1057.11332644 576.31959301 1096.86260647 648.23370982 1192.33203125 908.203125 C1192.52992249 908.97795227 1192.72781372 909.75277954 1192.93170166 910.55108643 C1214.62556832 995.6803754 1227.34697171 1084.92850117 1227.53515625 1172.87109375 C1227.54217567 1174.90660627 1227.54926251 1176.94211855 1227.55641174 1178.97763062 C1227.57582279 1185.44863194 1227.5808457 1191.9195975 1227.58203125 1198.390625 C1227.58247311 1199.49207226 1227.58291496 1200.59351952 1227.58337021 1201.72834396 C1227.58996662 1233.06153209 1227.52844814 1264.26927048 1224.58526611 1295.49053955 C1224.31703431 1298.36376825 1224.06343888 1301.23804709 1223.81201172 1304.11279297 C1215.80629732 1394.83259533 1197.8989234 1484.38344052 1162.04370117 1593.12805176 C1161.35233057 1595.14393664 1160.66493906 1597.16113691 1159.97851562 1599.17871094 C1137.7242633 1664.45572911 1108.60495383 1728.79525014 1073.94628906 1788.41601562 C1072.19166256 1791.44547966 1070.45998055 1794.48738271 1068.73046875 1797.53125 C1056.04092399 1819.8087452 1042.34775397 1841.30701021 1028.14453125 1862.640625 C1027.55129059 1863.53241455 1026.95804993 1864.4242041 1026.34683228 1865.34301758 C1016.29014208 1880.44413231 1006.00844886 1895.37277617 995.20703125 1909.953125 C994.62139404 1910.74549561 994.03575684 1911.53786621 993.43237305 1912.35424805 C988.48123668 1919.03594446 983.44799737 1925.64674124 978.33203125 1932.203125 C977.6973291 1933.01910156 977.6973291 1933.01910156 977.04980469 1933.8515625 C967.35393788 1946.31050016 957.45732147 1958.60863913 947.21264648 1970.62133789 C944.3851643 1973.94010736 941.62580837 1977.30496514 938.89453125 1980.703125 C934.51752005 1986.08598437 929.83648998 1991.14583842 925.10546875 1996.21484375 C922.96848811 1998.5067091 920.87979777 2000.83071257 918.83203125 2003.203125 C914.90804772 2007.73225298 910.83421851 2012.12169936 906.75634766 2016.51171875 C904.59444466 2018.84005107 902.43808946 2021.17327631 900.28686523 2023.51147461 C891.5219047 2033.00623536 882.48332726 2042.20679887 873.33447266 2051.33105469 C870.93534395 2053.72476331 868.54168855 2056.12385381 866.1484375 2058.5234375 C864.5979772 2060.07323782 863.04720716 2061.62272835 861.49609375 2063.171875 C860.79384674 2063.87614624 860.09159973 2064.58041748 859.36807251 2065.30603027 C855.41849348 2069.23716406 851.37442299 2072.99278369 847.1368103 2076.61242676 C845.28910626 2078.24095828 843.55597148 2079.94480364 841.83203125 2081.703125 C838.86467802 2084.71726082 835.75857833 2087.50229833 832.5546875 2090.26171875 C830.00226242 2092.49116561 827.51315611 2094.78313882 825.01953125 2097.078125 C820.48028165 2101.22238465 815.79744829 2105.12890898 811.015625 2108.98828125 C808.38494568 2111.15945327 805.85260701 2113.40553857 803.33203125 2115.703125 C798.15698948 2120.40770843 792.77135563 2124.8092989 787.33203125 2129.203125 C786.06581622 2130.23755944 784.80022782 2131.27276122 783.53515625 2132.30859375 C775.87285461 2138.57521879 768.15308076 2144.73834498 760.27001953 2150.72607422 C757.99197097 2152.46230423 755.72267962 2154.20971355 753.453125 2155.95703125 C743.28248793 2163.77114877 733.01932255 2171.39200536 722.48193359 2178.70361328 C720.26238253 2180.25170352 718.05596973 2181.81715048 715.8515625 2183.38671875 C653.15353106 2227.89912718 585.55385467 2266.02283345 515.3470459 2297.3046875 C513.42734211 2298.16062861 511.50895035 2299.0194455 509.59082031 2299.87890625 C426.7267508 2336.88747193 339.22759135 2363.46745967 54.0390625 2400.40625 C52.05267312 2400.41327257 50.06628396 2400.42035939 48.07989502 2400.42750549 C41.76810378 2400.44690121 35.45634929 2400.45193953 29.14453125 2400.453125 C28.06908428 2400.45356686 26.99363731 2400.45400871 25.88560104 2400.45446396 C-5.45462794 2400.46121729 -36.66296912 2400.32223651 -67.89685059 2397.45635986 C-70.80847837 2397.19028472 -73.72099614 2396.93608791 -76.63378906 2396.68310547 C-170.97431598 2388.39156206 -263.97407146 2369.10751615 -570.93017578 2240.81005859 C-574.48731009 2238.72221679 -578.07931191 2236.69973257 -581.67456055 2234.6784668 C-600.52776533 2224.05563076 -618.4730446 2212.05655309 -636.48046875 2200.078125 C-637.30359558 2199.53122009 -638.12672241 2198.98431519 -638.97479248 2198.4208374 C-653.68983052 2188.63489878 -668.2165654 2178.59881212 -682.41796875 2168.078125 C-683.21033936 2167.49248779 -684.00270996 2166.90685059 -684.8190918 2166.3034668 C-691.50078821 2161.35233043 -698.11158499 2156.31909112 -704.66796875 2151.203125 C-705.21195313 2150.77999023 -705.7559375 2150.35685547 -706.31640625 2149.92089844 C-718.77534391 2140.22503163 -731.07348288 2130.32841522 -743.08618164 2120.08374023 C-746.40495111 2117.25625805 -749.76980889 2114.49690212 -753.16796875 2111.765625 C-758.54939079 2107.38978255 -763.60795444 2102.71003685 -768.67578125 2097.98046875 C-770.99037137 2095.82234781 -773.33692621 2093.7113869 -775.73046875 2091.640625 C-781.14820146 2086.94375486 -786.40338908 2082.06980274 -791.66796875 2077.203125 C-792.23751785 2076.67714218 -792.80706696 2076.15115936 -793.39387512 2075.60923767 C-803.77592512 2066.00255585 -813.88338612 2056.14514917 -823.87133789 2046.13012695 C-826.2561713 2043.73986393 -828.6463998 2041.35508742 -831.03710938 2038.97070312 C-832.58235247 2037.42480018 -834.12728584 2035.87858757 -835.671875 2034.33203125 C-836.37300919 2033.6329213 -837.07414337 2032.93381134 -837.79652405 2032.21351624 C-841.71863408 2028.27291447 -845.46448484 2024.23691329 -849.07603455 2020.00914001 C-850.70503422 2018.16107502 -852.40923179 2016.42746986 -854.16796875 2014.703125 C-857.18210457 2011.73577177 -859.96714208 2008.62967208 -862.7265625 2005.42578125 C-864.95600936 2002.87335617 -867.24798257 2000.38424986 -869.54296875 1997.890625 C-873.6872284 1993.3513754 -877.59375273 1988.66854204 -881.453125 1983.88671875 C-883.62429702 1981.25603943 -885.87038232 1978.72370076 -888.16796875 1976.203125 C-892.87255218 1971.02808323 -897.27414265 1965.64244938 -901.66796875 1960.203125 C-902.70240319 1958.93690997 -903.73760497 1957.67132157 -904.7734375 1956.40625 C-911.04006254 1948.74394836 -917.20318873 1941.02417451 -923.19091797 1933.14111328 C-924.92714798 1930.86306472 -926.6745573 1928.59377337 -928.421875 1926.32421875 C-936.23599252 1916.15358168 -943.85684911 1905.8904163 -951.16845703 1895.35302734 C-952.71654727 1893.13347628 -954.28199423 1890.92706348 -955.8515625 1888.72265625 C-977.00704794 1858.9240599 -996.5404785 1827.92494365 -1014.66796875 1796.203125 C-1015.22274902 1795.23391113 -1015.7775293 1794.26469727 -1016.34912109 1793.26611328 C-1059.77534331 1717.16574312 -1094.75481086 1636.87850412 -1169.91796875 1293.265625 C-1170.00105286 1292.20388062 -1170.08413696 1291.14213623 -1170.16973877 1290.04821777 C-1170.40819609 1286.96607149 -1170.64111208 1283.88357081 -1170.87109375 1280.80078125 C-1170.97074936 1279.48712334 -1170.97074936 1279.48712334 -1171.07241821 1278.14692688 C-1172.29752461 1261.27644356 -1172.83500591 1244.44741136 -1172.87109375 1227.53515625 C-1172.87807075 1225.49927754 -1172.88511173 1223.46339904 -1172.89221191 1221.42752075 C-1172.91149544 1214.9568861 -1172.91638733 1208.48628526 -1172.91796875 1202.015625 C-1172.91855789 1200.91535603 -1172.91914703 1199.81508705 -1172.91975403 1198.68147659 C-1172.93163772 1167.26911873 -1172.79763386 1136.00275914 -1169.89581299 1104.699646 C-1169.66208897 1102.13869946 -1169.44395063 1099.57682882 -1169.22998047 1097.01416016 C-1165.68543609 1054.75120333 -1159.69583804 1012.8411673 -1151.66796875 971.203125 C-1151.49565735 970.30891846 -1151.32334595 969.41471191 -1151.14581299 968.4934082 C-1133.28829306 876.28366895 -1104.05878655 786.43716624 -1029.32910156 630.20898438 C-1027.57748462 627.03939182 -1025.83733722 623.86365772 -1024.09765625 620.6875 C-1017.90476033 609.41724427 -1011.59327232 598.23305123 -1004.98046875 587.203125 C-1004.42383545 586.27459717 -1003.86720215 585.34606934 -1003.29370117 584.3894043 C-993.75460983 568.61421591 -983.7475748 553.14575893 -973.51391602 537.81420898 C-971.73093011 535.14131664 -969.95417442 532.46435531 -968.17773438 529.78710938 C-960.59843391 518.39743843 -952.7555691 507.23673544 -944.66796875 496.203125 C-943.38800927 494.44271674 -942.10805889 492.68230187 -940.828125 490.921875 C-929.34824518 475.25027563 -917.41010278 459.97094542 -905.09619141 444.94726562 C-903.80792227 443.37403576 -902.5247415 441.79664252 -901.2421875 440.21875 C-895.94850831 433.71213189 -890.55660313 427.29333945 -885.11816406 420.90771484 C-883.64993836 419.18193171 -882.18623342 417.45238228 -880.72265625 415.72265625 C-874.78860107 408.73096014 -868.70525713 401.91153518 -862.453125 395.203125 C-860.07392382 392.64944371 -857.73875513 390.06015638 -855.41796875 387.453125 C-843.52840023 374.2161567 -831.11577931 361.48633553 -818.51953125 348.92431641 C-816.13813386 346.54835825 -813.76223632 344.16699169 -811.38671875 341.78515625 C-809.84537316 340.24447038 -808.30371799 338.70409416 -806.76171875 337.1640625 C-806.06574585 336.46606537 -805.36977295 335.76806824 -804.65270996 335.04891968 C-800.72108604 331.13583445 -796.6931536 327.39974976 -792.47521973 323.79629517 C-790.62679371 322.16682742 -788.89271823 320.46227755 -787.16796875 318.703125 C-784.20061552 315.68898918 -781.09451583 312.90395167 -777.890625 310.14453125 C-775.33819992 307.91508439 -772.84909361 305.62311118 -770.35546875 303.328125 C-765.81621915 299.18386535 -761.13338579 295.27734102 -756.3515625 291.41796875 C-753.72088318 289.24679673 -751.18854451 287.00071143 -748.66796875 284.703125 C-743.49292698 279.99854157 -738.10729313 275.5969511 -732.66796875 271.203125 C-731.40175372 270.16869056 -730.13616532 269.13348878 -728.87109375 268.09765625 C-721.20879211 261.83103121 -713.48901826 255.66790502 -705.60595703 249.68017578 C-703.32790847 247.94394577 -701.05861712 246.19653645 -698.7890625 244.44921875 C-688.61842543 236.63510123 -678.35526005 229.01424464 -667.81787109 221.70263672 C-665.59832003 220.15454648 -663.39190723 218.58909952 -661.1875 217.01953125 C-598.48946856 172.50712282 -530.88979217 134.38341655 -460.6829834 103.1015625 C-458.76327961 102.24562139 -456.84488785 101.3868045 -454.92675781 100.52734375 C-374.8075182 64.74466787 -290.04773086 38.23204191 -53.01953125 1.96484375 C-52.16602081 1.90158905 -51.31251038 1.83833435 -50.43313599 1.77316284 C-33.62074992 0.58283748 -16.85237887 0.03596008 0 0 Z " fill="#000000" transform="translate(1172.66796875,-0.203125)"/>
<path d="M0 0 C0 230.01 0 460.02 0 697 C-230.01 697 -460.02 697 -697 697 C-697 689.0843143 -696.97445005 681.22841163 -696.66796875 673.328125 C-696.63191528 672.37111694 -696.59586182 671.41410889 -696.55871582 670.42810059 C-695.10183914 632.79796765 -695.10183914 632.79796765 -692.47705078 615.24414062 C-692.01607514 612.10931753 -691.58770112 608.97184269 -691.16807556 605.83129883 C-688.75017734 587.74135037 -685.90714084 569.83683136 -682 552 C-681.73429199 550.76765625 -681.46858398 549.5353125 -681.19482422 548.265625 C-677.68686191 532.01520955 -673.94201736 515.88372374 -669 500 C-668.64566895 498.8562793 -668.29133789 497.71255859 -667.92626953 496.53417969 C-639.14782275 404.21781271 -593.29549876 319.64864372 -513.52758789 226.67114258 C-512.38740969 225.42381642 -511.26118967 224.16370439 -510.14233398 222.8972168 C-504.07595398 216.04807809 -497.70334103 209.5498293 -491.22485352 203.09448242 C-489.4332405 201.3082533 -487.64706945 199.51670653 -485.86132812 197.72460938 C-480.59963732 192.45986117 -475.34046363 187.25559606 -469.6706543 182.42553711 C-467.10361355 180.23513072 -464.65672446 177.92500488 -462.1875 175.625 C-457.62049789 171.41046774 -452.93720638 167.39703387 -448.09375 163.5 C-445.74368 161.60095353 -443.41356378 159.68541304 -441.09375 157.75 C-408.19775704 130.3385769 -372.36241068 106.84489251 -335 86 C-334.00468262 85.4440918 -333.00936523 84.88818359 -331.98388672 84.31542969 C-285.06001904 58.24416078 -233.41886932 36.38808691 -181.2109375 23.55273438 C-178.45766206 22.86441551 -175.71394652 22.14173399 -172.96875 21.421875 C-144.5756044 14.05094999 -115.97473519 9.10283893 -86.92980957 5.2578125 C-84.10537563 4.88048285 -81.28347096 4.48500971 -78.4609375 4.09375 C-66.50383222 2.49198925 -54.5370068 1.53350422 -42.5 0.8125 C-41.81075439 0.76952789 -41.12150879 0.72655579 -40.41137695 0.68228149 C-26.91213235 -0.14013961 -13.56348758 0 0 0 Z " fill="#00ABEB" transform="translate(1188,491)"/>
<path d="M0 0 C23.07855886 0 23.07855886 0 31.22265625 0.515625 C32.63661179 0.59903389 32.63661179 0.59903389 34.07913208 0.68412781 C37.07416812 0.86451923 40.06833017 1.05579057 43.0625 1.25 C44.09960114 1.31591339 45.13670227 1.38182678 46.20523071 1.44973755 C71.43049673 3.06997012 96.5634394 5.25609224 121.33398438 10.46142578 C124.34578045 11.06985272 127.36531443 11.61517669 130.390625 12.15234375 C152.44082819 16.06769673 174.0337787 21.02645213 195.37402344 27.84228516 C198.06573789 28.70170543 200.75894439 29.55532262 203.45410156 30.40380859 C234.4717746 40.18034961 264.41507283 51.4204158 294 65 C294.94456055 65.4316748 295.88912109 65.86334961 296.86230469 66.30810547 C309.60267019 72.15752749 321.95518702 78.59478212 334.19091797 85.43359375 C337.01770132 87.00987065 339.85387596 88.56816792 342.69140625 90.125 C355.71808213 97.32252373 368.23179891 105.1374423 380.60644531 113.40234375 C382.60420865 114.73581614 384.60759998 116.05946338 386.6171875 117.375 C398.40272579 125.12782094 409.76992051 133.46748529 421 142 C422.04929687 142.79148437 423.09859375 143.58296875 424.1796875 144.3984375 C430.93123971 149.5171884 437.45655314 154.84791745 443.890625 160.359375 C446.67214811 162.73718381 449.5157635 165.02849451 452.375 167.3125 C457.64826087 171.597507 462.59381939 176.19304013 467.52294922 180.86450195 C470.48579014 183.67032595 473.46956026 186.41472202 476.578125 189.05859375 C482.38377573 194.10368808 487.75530686 199.60649008 493.18188477 205.05151367 C495.05829475 206.93328274 496.93998969 208.80964738 498.82226562 210.68554688 C504.24429551 216.10456911 509.62659781 221.50797044 514.59643555 227.35131836 C516.77723248 229.91296764 519.08205813 232.35085821 521.375 234.8125 C525.58953226 239.37950211 529.60296613 244.06279362 533.5 248.90625 C535.39904647 251.25632 537.31458696 253.58643622 539.25 255.90625 C561.44454706 282.54155678 581.34468896 311.16603355 599 341 C599.55768066 341.93875977 600.11536133 342.87751953 600.68994141 343.84472656 C627.00893968 388.30761204 648.02105717 434.88097977 664.0625 484 C664.46156052 485.21549026 664.46156052 485.21549026 664.86868286 486.45553589 C668.57342364 497.79704825 671.68414315 509.21716587 674.47080994 520.81710815 C675.26513161 524.0936593 676.10231931 527.35863792 676.9375 530.625 C677.63557455 533.41411209 678.31918013 536.20662767 679 539 C679.2283252 539.93553711 679.45665039 540.87107422 679.69189453 541.83496094 C683.4789942 557.47185846 686.62300097 573.08860942 689 589 C689.16741699 590.09586426 689.33483398 591.19172852 689.50732422 592.32080078 C694.79279708 627.21484747 696.21194523 661.53753535 697 697 C466.99 697 236.98 697 0 697 C0 466.99 0 236.98 0 0 Z " fill="#FEFEFE" transform="translate(1212,491)"/>
<path d="M0 0 C230.01 0 460.02 0 697 0 C697 230.01 697 460.02 697 697 C669.48649559 697 669.48649559 697 656.1875 696.25 C655.02834076 696.18664459 655.02834076 696.18664459 653.84576416 696.12200928 C636.79985804 695.17027772 619.91360445 693.28345278 603 691 C601.78070801 690.83741699 600.56141602 690.67483398 599.30517578 690.50732422 C526.43776731 680.65875244 454.43275774 658.39230013 388.90917969 624.96630859 C387.02184809 624.01105815 385.12633592 623.07476174 383.2265625 622.14453125 C355.95511034 608.76483426 330.04919535 593.16088719 305 576 C304.26620117 575.49791016 303.53240234 574.99582031 302.77636719 574.47851562 C276.24676377 556.24017422 250.85437665 536.06712471 227.328125 514.08203125 C225.52168465 512.39423123 223.69886984 510.73317537 221.84838867 509.09350586 C215.16899328 503.17314802 208.81866424 496.97256175 202.52172852 490.65209961 C200.80792767 488.9329133 199.08880918 487.21917417 197.36914062 485.50585938 C192.22801335 480.36784057 187.16312286 475.22180983 182.44311523 469.68823242 C180.24507308 467.11684661 177.93064933 464.6627842 175.625 462.1875 C171.41046774 457.62049789 167.39703387 452.93720638 163.5 448.09375 C161.60095353 445.74368 159.68541304 443.41356378 157.75 441.09375 C127.27930414 404.52637468 100.88771887 364.2547787 79 322 C78.67773438 321.37973938 78.35546875 320.75947876 78.0234375 320.12042236 C53.74066717 273.34336102 33.36599068 223.33438008 21 172 C20.70706055 170.80294434 20.41412109 169.60588867 20.11230469 168.37255859 C11.28372952 132.03847425 4.87287405 94.92408536 2.26025391 57.609375 C1.93063118 53.03794681 1.52617468 48.47461422 1.11206055 43.91015625 C-0.06296021 29.06295024 0 15.06726945 0 0 Z " fill="#FEFEFE" transform="translate(491,1212)"/>
<path d="M0 0 C230.01 0 460.02 0 697 0 C697 16.06267971 696.9841529 31.68972114 695.6875 47.625 C695.54710526 49.41723524 695.40672466 51.20947159 695.26635742 53.00170898 C694.86790288 58.0032792 694.44153308 63.00206368 694 68 C693.89848633 69.15612793 693.79697266 70.31225586 693.69238281 71.50341797 C690.17613931 109.31228895 683.60271939 148.68932003 672.24902344 184.97338867 C671.23770237 188.20638912 670.28297559 191.45322153 669.34776306 194.70916748 C666.33639968 205.15575305 662.95001915 215.46239754 659.4375 225.75 C659.13419769 226.63952362 658.83089539 227.52904724 658.5184021 228.44552612 C652.98996681 244.59950622 646.89001627 260.37335677 640 276 C639.56155762 277.00095703 639.12311523 278.00191406 638.67138672 279.03320312 C627.47489752 304.44498711 615.09826704 329.41397158 600.70898438 353.171875 C598.98098463 356.03146772 597.27798736 358.90485805 595.578125 361.78125 C580.31423775 387.44249737 562.69884359 411.73429484 544 435 C543.25492188 435.928125 542.50984375 436.85625 541.7421875 437.8125 C532.87296254 448.74803185 523.69506999 459.38496087 514.08203125 469.671875 C512.39423123 471.47831535 510.73317537 473.30113016 509.09350586 475.15161133 C503.17314802 481.83100672 496.97256175 488.18133576 490.65209961 494.47827148 C488.9329133 496.19207233 487.21917417 497.91119082 485.50585938 499.63085938 C480.36784057 504.77198665 475.22180983 509.83687714 469.68823242 514.55688477 C467.11684661 516.75492692 464.6627842 519.06935067 462.1875 521.375 C457.62049789 525.58953226 452.93720638 529.60296613 448.09375 533.5 C445.74368 535.39904647 443.41356378 537.31458696 441.09375 539.25 C405.54320206 568.87339858 366.61421211 593.93005897 326 616 C325.1037793 616.49209961 324.20755859 616.98419922 323.28417969 617.49121094 C257.14973369 653.73525388 182.9409672 677.09412154 108.58666992 688.53857422 C105.89658927 688.95407498 105.89658927 688.95407498 103 690 C100.62429942 690.33452629 98.24288102 690.6289208 95.859375 690.90234375 C94.79389687 691.02539886 94.79389687 691.02539886 93.70689392 691.15093994 C91.38836478 691.41712738 89.06926884 691.67784108 86.75 691.9375 C85.56284897 692.0714769 85.56284897 692.0714769 84.35171509 692.2081604 C56.12118137 695.3880037 28.4863175 697 0 697 C0 466.99 0 236.98 0 0 Z " fill="#00ABEB" transform="translate(1212,1212)"/>
<path d="M0 0 C13.05927699 11.02736356 20.78658695 23.9030437 25.75 40.1875 C26.11738281 41.36054688 26.48476563 42.53359375 26.86328125 43.7421875 C28.31355457 49.75344445 28.13136952 55.91352174 28.125 62.0625 C28.12628906 63.34431152 28.12757813 64.62612305 28.12890625 65.94677734 C28.028823 74.98725176 27.03315572 83.27675148 24.625 91.9765625 C23.61854062 95.1152383 23.61854062 95.1152383 23.75 98.1875 C24.56339844 97.630625 25.37679688 97.07375 26.21484375 96.5 C45.27924026 83.69433156 64.42883478 75.81496897 87.625 75.6875 C88.72956543 75.68105469 89.83413086 75.67460937 90.97216797 75.66796875 C114.8605556 76.03893968 135.03649935 86.67770424 151.75 103.1875 C162.35253294 114.49775036 170.34473853 128.31974254 174.75 143.1875 C175.12125 144.36828125 175.4925 145.5490625 175.875 146.765625 C181.00412619 164.48302971 180.60212399 183.74017383 174.75 201.1875 C174.3096846 202.58326671 173.86958738 203.97910227 173.4296875 205.375 C170.14219469 215.47475562 165.77795898 224.84778795 160.75 234.1875 C160.13382813 235.34765625 159.51765625 236.5078125 158.8828125 237.703125 C147.97723431 257.52322147 133.43044685 275.07806039 118.75 292.1875 C117.78232369 293.32011741 116.81487905 294.45293278 115.84765625 295.5859375 C110.13065441 302.27606611 104.37610046 308.93312788 98.6081543 315.5793457 C93.45849329 321.51617687 88.34307213 327.4819475 83.23388672 333.45361328 C80.24074584 336.95102798 77.2437777 340.44516391 74.24755859 343.93994141 C71.75885709 346.84302183 69.27102448 349.7468367 66.78515625 352.65234375 C61.08272169 359.31518834 55.35614311 365.95621705 49.60791016 372.57958984 C42.90517526 380.30704862 36.25739147 388.08150674 29.61328125 395.859375 C24.0559566 402.36037996 18.4699922 408.82821456 12.75 415.1875 C6.97272279 411.11526449 1.80037214 406.55510855 -3.390625 401.765625 C-7.00787284 398.50417203 -10.77735752 395.46045542 -14.56640625 392.40234375 C-17.19708557 390.23117173 -19.72942424 387.98508643 -22.25 385.6875 C-25.66739372 382.57291332 -29.1552235 379.5956338 -32.75 376.6875 C-37.21420457 373.07600866 -41.48002114 369.30089306 -45.72265625 365.43359375 C-48.31962393 363.12562402 -50.98404013 360.93194137 -53.6875 358.75 C-58.45996203 354.89041397 -62.98109109 350.81550009 -67.49609375 346.66015625 C-71.08207284 343.44040481 -74.81701492 340.42844824 -78.56640625 337.40234375 C-82.05550916 334.52269113 -85.37996921 331.48056124 -88.72265625 328.43359375 C-91.31962393 326.12562402 -93.98404013 323.93194137 -96.6875 321.75 C-101.45996203 317.89041397 -105.98109109 313.81550009 -110.49609375 309.66015625 C-114.08207284 306.44040481 -117.81701492 303.42844824 -121.56640625 300.40234375 C-125.05550916 297.52269113 -128.37996921 294.48056124 -131.72265625 291.43359375 C-134.31962393 289.12562402 -136.98404013 286.93194137 -139.6875 284.75 C-144.45996203 280.89041397 -148.98109109 276.81550009 -153.49609375 272.66015625 C-157.08207284 269.44040481 -160.81701492 266.42844824 -164.56640625 263.40234375 C-168.05550916 260.52269113 -171.37996921 257.48056124 -174.72265625 254.43359375 C-177.31962393 252.12562402 -179.98404013 249.93194137 -182.6875 247.75 C-187.45996203 243.89041397 -191.98109109 239.81550009 -196.49609375 235.66015625 C-200.08207284 232.44040481 -203.81701492 229.42844824 -207.56640625 226.40234375 C-210.19708557 224.23117173 -212.72942424 221.98508643 -215.25 219.6875 C-218.66739372 216.57291332 -222.1552235 213.5956338 -225.75 210.6875 C-230.21420457 207.07600866 -234.48002114 203.30089306 -238.72265625 199.43359375 C-241.31962393 197.12562402 -243.98404013 194.93194137 -246.6875 192.75 C-251.52941483 188.83263751 -256.13925445 184.71124519 -260.72265625 180.49609375 C-263.83789598 177.65048837 -267.02662843 174.90945822 -270.25 172.1875 C-268.20953274 168.55572493 -265.96381615 165.60481552 -263.125 162.5625 C-259.89822007 159.04379813 -256.80724384 155.46816331 -253.8125 151.75 C-249.95291397 146.97753797 -245.87800009 142.45640891 -241.72265625 137.94140625 C-238.50290481 134.35542716 -235.49094824 130.62048508 -232.46484375 126.87109375 C-229.58519113 123.38199084 -226.54306124 120.05753079 -223.49609375 116.71484375 C-221.18812402 114.11787607 -218.99444137 111.45345987 -216.8125 108.75 C-212.95291397 103.97753797 -208.87800009 99.45640891 -204.72265625 94.94140625 C-201.50290481 91.35542716 -198.49094824 87.62048508 -195.46484375 83.87109375 C-193.29367173 81.24041443 -191.04758643 78.70807576 -188.75 76.1875 C-185.63541332 72.77010628 -182.6581338 69.2822765 -179.75 65.6875 C-176.08985922 61.16652471 -172.2821816 56.82060608 -168.3671875 52.51953125 C-166.46948831 50.42926111 -164.60266585 48.31763885 -162.75 46.1875 C-161.58389889 44.85367202 -160.41720784 43.52035961 -159.25 42.1875 C-158.59773438 41.44113281 -157.94546875 40.69476563 -157.2734375 39.92578125 C-147.70510828 29.12226771 -137.68290276 19.02350056 -126.25 10.1875 C-125.30640625 9.43855469 -124.3628125 8.68960937 -123.390625 7.91796875 C-87.63262226 -19.84651222 -38.27818083 -29.3308042 0 0 Z " fill="#FDFDFD" transform="translate(490.25,424.8125)"/>
<path d="M0 0 C28.05 0 56.1 0 85 0 C89.32662816 9.27134606 93.63420083 18.53792695 97.8125 27.875 C98.0804538 28.47304443 98.34840759 29.07108887 98.6244812 29.68725586 C104.04785903 41.79668171 109.37769044 53.94686181 114.7015686 66.10028076 C120.75613101 79.92034147 126.86243755 93.71661297 133 107.5 C139.74884144 122.65725267 146.45333754 137.83295239 153.10852051 153.03155518 C157.30988596 162.62481911 161.52930998 172.20941155 165.796875 181.7734375 C166.40506577 183.13659088 166.40506577 183.13659088 167.02554321 184.52728271 C167.43364227 185.4418927 167.84174133 186.35650269 168.26220703 187.29882812 C176.67227794 206.14709421 184.9562136 225.04579454 193.125 244 C193.60884155 245.12243103 194.09268311 246.24486206 194.59118652 247.40130615 C195.96045886 250.57950984 197.32833848 253.75830718 198.6953125 256.9375 C199.10268646 257.88432648 199.51006042 258.83115295 199.92977905 259.80667114 C200.30631622 260.6838681 200.68285339 261.56106506 201.07080078 262.46484375 C201.3968631 263.224021 201.72292542 263.98319824 202.05886841 264.76538086 C203.06961726 267.16529896 204.03966518 269.5795177 205 272 C207.42553021 269.57446979 208.27002175 267.36892627 209.625 264.2109375 C209.88356277 263.61308945 210.14212555 263.01524139 210.40852356 262.39927673 C210.97531037 261.0882634 211.5401046 259.77638731 212.10317993 258.46377563 C213.66499299 254.82617074 215.24503043 251.19649416 216.82421875 247.56640625 C217.32824471 246.40684669 217.32824471 246.40684669 217.842453 245.22386169 C221.76235836 236.22198498 225.77975204 227.26427955 229.8125 218.3125 C230.1903363 217.47359222 230.56817261 216.63468445 230.9574585 215.77035522 C238.18898097 199.72511526 245.52973474 183.73073122 252.89328003 167.74575806 C256.62415173 159.64657763 260.34949471 151.54488866 264.0625 143.4375 C264.39190582 142.71833405 264.72131165 141.99916809 265.06069946 141.25820923 C270.39897097 129.59373882 275.61475722 117.87772681 280.79812622 106.14376831 C286.61212127 92.99474876 292.63078139 79.94690705 298.7043457 66.91607666 C305.20488486 52.96240153 311.5400523 38.94274126 317.75 24.85742188 C318.0598735 24.15506409 318.36974701 23.4527063 318.68901062 22.72906494 C319.51140755 20.86334457 320.33161265 18.99665847 321.15161133 17.12988281 C323.71739167 11.39712091 326.36800145 5.70266353 329 0 C354.08 0 379.16 0 405 0 C405 105.93 405 211.86 405 321 C387.18 321 369.36 321 351 321 C350.505 189.825 350.505 189.825 350 56 C340.85774651 75.42728867 331.75255649 94.8349472 322.91015625 114.39453125 C318.67583175 123.7436172 314.37038629 133.0596395 310.0625 142.375 C304.34657875 154.73715439 298.65357026 167.10920267 293 179.5 C286.96679754 192.72282833 280.8856359 205.92294626 274.78610229 219.11529541 C269.36758961 230.83756401 263.99836435 242.58092231 258.67044067 254.34460449 C252.34091694 268.31311928 245.89345189 282.22643617 239.43188477 296.13427734 C238.84663277 297.3943158 238.84663277 297.3943158 238.2495575 298.67980957 C237.52698066 300.23512527 236.80397222 301.79024057 236.08039856 303.34509277 C233.35239521 309.21518137 230.67887758 315.10646932 228 321 C211.17 321 194.34 321 177 321 C168.14681732 301.67696651 159.33070122 282.34332225 150.65830994 262.93867493 C147.1779341 255.15527295 143.6749589 247.3820318 140.17425537 239.60775757 C134.09502443 226.10715039 128.02477479 212.60263016 121.97265625 199.08984375 C117.32703453 188.7211868 112.66417708 178.36032028 108 168 C102.31387767 155.36968013 96.63592239 142.73581197 90.97485352 130.09423828 C87.86418606 123.1506888 84.74575654 116.2106983 81.62109375 109.2734375 C81.23511017 108.41635193 80.84912659 107.55926636 80.45144653 106.6762085 C78.56616875 102.49012113 76.68020166 98.30434691 74.79296875 94.11914062 C68.47824713 80.10115003 62.24453547 66.05020481 56 52 C55.67 140.77 55.34 229.54 55 321 C36.85 321 18.7 321 0 321 C0 215.07 0 109.14 0 0 Z " fill="#FCFCFC" transform="translate(973,101)"/>
<path d="M0 0 C5.20094009 5.07977123 9.8414485 10.56733246 14.47119141 16.16357422 C15.50993393 17.41132594 16.55681087 18.65234132 17.61083984 19.88720703 C19.19553828 21.74422325 20.75575111 23.61953346 22.3125 25.5 C22.81088379 26.07484131 23.30926758 26.64968262 23.82275391 27.24194336 C25.17578125 28.90625 25.17578125 28.90625 27 32 C26.27614613 36.35640493 23.33948528 39.2292005 20.5 42.5 C16.90088508 46.70736993 13.41645726 50.96945206 10.0625 55.375 C6.59484713 59.92199304 3.10010758 64.44464453 -0.4375 68.9375 C-0.89503662 69.51870605 -1.35257324 70.09991211 -1.82397461 70.69873047 C-2.75210036 71.87725631 -3.68040476 73.05564149 -4.60888672 74.23388672 C-6.90874237 77.15371048 -9.20415945 80.07701893 -11.5 83 C-12.4166451 84.16668361 -13.33331177 85.33335027 -14.25 86.5 C-14.70375 87.0775 -15.1575 87.655 -15.625 88.25 C-39 118 -62.375 147.75 -85.75 177.5 C-86.20358887 178.07733887 -86.65717773 178.65467773 -87.12451172 179.24951172 C-88.04263354 180.41794152 -88.96092826 181.58623548 -89.87939453 182.75439453 C-92.15022369 185.64300506 -94.41814946 188.53379548 -96.6796875 191.4296875 C-102.70054746 199.13096543 -108.82544767 206.74105468 -115.00390625 214.31640625 C-117.39996053 217.25603408 -119.7693991 220.21530009 -122.125 223.1875 C-125.63057938 227.58796357 -129.2628684 231.87277463 -132.90991211 236.15576172 C-137.04380422 241.02181061 -141.04870932 245.98446484 -145 251 C-135.81608944 246.98273657 -126.69101484 242.86264232 -117.6953125 238.4375 C-117.0550563 238.12261124 -116.41480011 237.80772247 -115.75514221 237.48329163 C-115.10093796 237.16146408 -114.4467337 236.83963654 -113.77270508 236.50805664 C-95.4076605 227.47471865 -76.76436185 219.21582008 -57.96289062 211.13671875 C-50.6464008 207.99052048 -43.34720454 204.80466096 -36.04763794 201.6194458 C-33.61597591 200.55856298 -31.18388826 199.49866121 -28.75170898 198.43896484 C-17.98588655 193.74699206 -7.23068198 189.03117031 3.52020264 184.30508423 C21.00718629 176.61787288 38.50785496 168.9626599 56.03491211 161.3671875 C57.94255896 160.54039548 59.8501925 159.71357274 61.7578125 158.88671875 C62.69337479 158.48125824 63.62893707 158.07579773 64.59284973 157.65805054 C70.17174808 155.23709156 75.74096465 152.79538081 81.30224609 150.33422852 C84.76026625 148.80482824 88.22187961 147.28367168 91.68395996 145.76348877 C93.2975214 145.05224522 94.90929877 144.33693889 96.51916504 143.61737061 C98.71931494 142.63429651 100.92514488 141.66526475 103.1328125 140.69921875 C103.77531952 140.40763382 104.41782654 140.11604889 105.07980347 139.81562805 C107.62862235 138.71402429 109.52757526 137.95453923 112.32397461 138.22363281 C114.75682017 139.35057365 115.83292683 140.92187789 117.4375 143.0625 C118.47197266 144.41021484 118.47197266 144.41021484 119.52734375 145.78515625 C119.91390137 146.29191895 120.30045898 146.79868164 120.69873047 147.32080078 C123.23735035 150.59671589 125.87892318 153.7900187 128.5 157 C129.61729957 158.38011761 130.73448893 159.76032446 131.8515625 161.140625 C133.7566105 163.48830636 135.68150064 165.81335156 137.6484375 168.109375 C138.38320312 168.98078125 139.11796875 169.8521875 139.875 170.75 C140.51179688 171.48734375 141.14859375 172.2246875 141.8046875 172.984375 C143 175 143 175 142.71630859 176.90869141 C141.96910587 179.09019739 141.07778402 180.60862899 139.734375 182.4765625 C139.26322266 183.13785156 138.79207031 183.79914063 138.30664062 184.48046875 C137.79294922 185.18816406 137.27925781 185.89585937 136.75 186.625 C135.94852539 187.74455078 135.94852539 187.74455078 135.13085938 188.88671875 C133.42722586 191.26268261 131.71462242 193.63195692 130 196 C128.91133811 197.5077257 127.82279443 199.01553676 126.734375 200.5234375 C125.11040032 202.77198008 123.48558746 205.01989547 121.85839844 207.26611328 C118.20142688 212.31813563 114.58728073 217.39829997 111 222.5 C106.87608724 228.36487857 102.70674553 234.19425395 98.5 240 C92.25956748 248.61526636 86.11798644 257.29751764 80 266 C73.34396858 275.46782027 66.64583222 284.90082697 59.85351562 294.27148438 C56.21471499 299.29814699 52.62668097 304.35774258 49.0625 309.4375 C35.41945664 328.83317206 21.11652584 347.72822209 6 366 C5.31035156 366.85207031 4.62070313 367.70414063 3.91015625 368.58203125 C-5.06363069 379.66538835 -14.47852706 390.38542745 -24 401 C-22.57906901 400.2895345 -21.15815625 399.57903254 -19.73730469 398.8684082 C-18.36842217 398.18413511 -16.99926529 397.5004107 -15.62988281 396.81713867 C-10.97595278 394.49360576 -6.32915797 392.15655473 -1.6875 389.80859375 C10.97071828 383.42089436 23.68354655 377.2358633 36.57202148 371.32202148 C47.39654049 366.33130771 58.10695659 361.11531547 68.8125 355.875 C69.70666626 355.43746399 70.60083252 354.99992798 71.52209473 354.5491333 C75.02154697 352.83672832 78.52094234 351.12420728 82.0201416 349.4112854 C94.50634879 343.30177946 107.04972894 337.31676356 119.63671875 331.41796875 C122.46630762 330.09149061 125.2957314 328.76466114 128.125 327.4375 C128.83789185 327.10315948 129.55078369 326.76881897 130.28527832 326.42434692 C144.3333441 319.83065888 158.28957995 313.0547054 172.23529053 306.24781799 C173.3621225 305.69782387 173.3621225 305.69782387 174.51171875 305.13671875 C175.24956604 304.7765416 175.98741333 304.41636444 176.74761963 304.04527283 C186.46944444 299.30286761 196.23187525 294.64610015 206 290 C208.01959537 289.037895 210.03912489 288.07565177 212.05859375 287.11328125 C217.0383054 284.74059511 222.01881223 282.3695855 227 280 C231.29838015 284.12029284 235.05432828 288.57417849 238.8125 293.1875 C239.42689941 293.93765381 240.04129883 294.68780762 240.67431641 295.46069336 C245.15657624 300.94156997 249.60693841 306.4472793 254 312 C250.21807913 315.24535254 245.86785738 316.99060982 241.34765625 318.96484375 C240.47753403 319.34983536 239.6074118 319.73482697 238.71092224 320.13148499 C235.83016833 321.40486574 232.94632884 322.67110039 230.0625 323.9375 C228.02970862 324.83474451 225.99716033 325.73253993 223.96484375 326.63085938 C219.73938511 328.49807256 215.51288637 330.36290178 211.28564453 332.22607422 C202.60519466 336.05412146 193.93751926 339.91082549 185.26983643 343.76766968 C180.60360862 345.84372513 175.93656814 347.91795169 171.26953125 349.9921875 C170.34223206 350.4043602 169.41493286 350.8165329 168.45953369 351.24119568 C162.78525159 353.76307489 157.11007252 356.28292442 151.43423462 358.80130005 C146.6850378 360.90855755 141.9361787 363.01657522 137.1875 365.125 C136.25264771 365.54005798 135.31779541 365.95511597 134.35461426 366.38275146 C120.30828057 372.62101008 106.28854989 378.9164337 92.28036499 385.23980713 C78.86770095 391.2913546 65.40798011 397.22992504 51.92614746 403.12554932 C40.07890807 408.30797845 28.26444645 413.55713616 16.4798584 418.88049316 C11.55472044 421.10389657 6.62574758 423.31879128 1.69708252 425.53436279 C-2.76300414 427.54018052 -7.22022312 429.55209315 -11.67382812 431.57226562 C-16.44048625 433.73342589 -21.21415718 435.87838436 -25.99267578 438.01318359 C-27.81976195 438.83273544 -29.64435511 439.65786966 -31.46630859 440.48876953 C-33.98688697 441.63736982 -36.51545335 442.76616867 -39.046875 443.890625 C-39.7959613 444.23748352 -40.54504761 444.58434204 -41.3168335 444.94171143 C-46.39526488 447.16309161 -46.39526488 447.16309161 -49.34643555 446.3671875 C-52.00487135 444.16915996 -54.00414985 441.49162606 -56.0625 438.75 C-57.025122 437.48497673 -57.98869333 436.2206754 -58.953125 434.95703125 C-59.44876953 434.30557129 -59.94441406 433.65411133 -60.45507812 432.98291016 C-62.0047833 430.99386063 -63.6067198 429.06231928 -65.234375 427.13671875 C-65.74991943 426.51635742 -66.26546387 425.89599609 -66.79663086 425.25683594 C-67.79174621 424.0625052 -68.80008437 422.87904444 -69.82250977 421.70800781 C-71.17578125 420.05859375 -71.17578125 420.05859375 -73 417 C-72.29697865 412.11080603 -68.08413211 407.72531657 -65.1875 403.8125 C-64.00376568 402.19411323 -62.82017591 400.57562071 -61.63671875 398.95703125 C-61.03134277 398.13283691 -60.4259668 397.30864258 -59.80224609 396.45947266 C-57.01410497 392.65457781 -54.2577876 388.82691923 -51.5 385 C-50.41683927 383.49987536 -49.3335054 381.99987571 -48.25 380.5 C-47.71375 379.7575 -47.1775 379.015 -46.625 378.25 C7.8125 302.875 7.8125 302.875 62.25 227.5 C63.0548584 226.3855249 63.0548584 226.3855249 63.87597656 225.24853516 C64.95591198 223.75331489 66.03598939 222.25819716 67.11621094 220.76318359 C69.8777244 216.94089565 72.63650813 213.11668417 75.390625 209.2890625 C80.9794659 201.52732159 86.59774588 193.79858206 92.390625 186.1875 C94.01843343 184.10465043 94.01843343 184.10465043 95 182 C94.13761719 182.41137207 93.27523438 182.82274414 92.38671875 183.24658203 C73.54795771 192.22152613 54.61849466 200.9127263 35.46646118 209.19720459 C26.54658186 213.05690677 17.64892128 216.96728303 8.75 220.875 C7.8839917 221.25505188 7.0179834 221.63510376 6.12573242 222.02667236 C-6.87017067 227.73044327 -19.8464021 233.4772548 -32.81112671 239.25149536 C-43.68893315 244.09548494 -54.58512109 248.89499539 -65.49884033 253.6574707 C-76.41377107 258.42121794 -87.31151136 263.22304091 -98.20275879 268.04067993 C-100.92615184 269.24498177 -103.65000743 270.44823099 -106.37402344 271.65112305 C-114.83513283 275.38788628 -123.29429115 279.12877084 -131.74504089 282.88891602 C-135.52624189 284.56993555 -139.30988417 286.24540948 -143.09402466 287.9197998 C-144.89190557 288.7168666 -146.68870032 289.51638836 -148.48434448 290.31848145 C-150.97248307 291.42959979 -153.46426209 292.53213043 -155.95703125 293.6328125 C-156.68630829 293.96102997 -157.41558533 294.28924744 -158.16696167 294.62741089 C-162.11285395 296.35822048 -165.67494221 297.49853177 -170 298 C-170.66644531 297.14019531 -171.33289062 296.28039062 -172.01953125 295.39453125 C-177.33783201 288.56366838 -182.7429877 281.83437045 -188.38208008 275.26489258 C-189.59544484 273.8495651 -190.79817381 272.42513849 -192 271 C-192.9590625 269.98292969 -192.9590625 269.98292969 -193.9375 268.9453125 C-195 267 -195 267 -194.578125 264.7890625 C-192.28561731 260.73745237 -189.5515644 257.0872241 -186.75 253.375 C-185.47381362 251.66417044 -184.19777606 249.95322986 -182.921875 248.2421875 C-181.94250977 246.93459473 -181.94250977 246.93459473 -180.94335938 245.60058594 C-177.94090893 241.58273391 -174.97119167 237.54098901 -172 233.5 C-170.83351127 231.91653557 -169.66684405 230.33320261 -168.5 228.75 C-167.63375 227.574375 -167.63375 227.574375 -166.75 226.375 C-35.5 48.25 -35.5 48.25 -33.74926758 45.87402344 C-32.5850201 44.29396168 -31.42079477 42.71388361 -30.2565918 41.13378906 C-27.3030948 37.12526509 -24.34918889 33.11704356 -21.39453125 29.109375 C-14.24909241 19.41642345 -7.11555574 9.71491181 0 0 Z " fill="#FDFDFD" transform="translate(1935,343)"/>
<path d="M0 0 C12.90031799 9.7856736 21.66660263 21.87346259 25.42480469 37.86230469 C28.16001567 64.02849917 17.34142574 86.73357138 1.26464844 106.85449219 C-5.9596172 115.76061899 -13.46879386 124.42424838 -21.00927734 133.0625 C-23.5677868 136.00315041 -26.10332318 138.96335158 -28.63769531 141.92480469 C-29.12898926 142.4986792 -29.6202832 143.07255371 -30.12646484 143.66381836 C-31.1148675 144.81858099 -32.10314897 145.97344736 -33.09130859 147.12841797 C-36.08444947 150.62583267 -39.08141761 154.11996859 -42.07763672 157.61474609 C-44.56633822 160.51782651 -47.05417083 163.42164139 -49.54003906 166.32714844 C-54.71865728 172.37781156 -59.91468845 178.41239927 -65.13769531 184.42480469 C-71.01088648 191.18648162 -76.8086965 198.00953155 -82.57519531 204.86230469 C-86.68754361 204.32798565 -88.70175668 202.16420194 -91.63769531 199.36230469 C-95.36635773 195.86011746 -99.15023365 192.51129725 -103.13769531 189.29980469 C-107.58368568 185.71148055 -111.82644208 181.95634989 -116.04785156 178.10839844 C-118.64481924 175.80042871 -121.30923544 173.60674606 -124.01269531 171.42480469 C-128.78515734 167.56521866 -133.3062864 163.49030478 -137.82128906 159.33496094 C-141.40726815 156.1152095 -145.14221023 153.10325293 -148.89160156 150.07714844 C-151.52228088 147.90597642 -154.05461956 145.65989112 -156.57519531 143.36230469 C-160.90715673 139.4154065 -165.39184815 135.70095979 -169.94628906 132.01464844 C-173.56670219 129.05053606 -177.08226941 125.97491201 -180.57519531 122.86230469 C-178.89179611 118.80234189 -176.06373141 115.749561 -173.20019531 112.48730469 C-172.10894023 111.22958697 -171.0177975 109.97177176 -169.92675781 108.71386719 C-169.36891602 108.07352539 -168.81107422 107.43318359 -168.23632812 106.7734375 C-165.66649444 103.81684461 -163.12142776 100.83921801 -160.57519531 97.86230469 C-159.57532956 96.69552297 -158.57532914 95.52885663 -157.57519531 94.36230469 C-156.83269531 93.49605469 -156.83269531 93.49605469 -156.07519531 92.61230469 C-154.57519531 90.86230469 -153.07519531 89.11230469 -151.57519531 87.36230469 C-150.83281616 86.49617554 -150.83281616 86.49617554 -150.07543945 85.61254883 C-149.07467926 84.44502241 -148.07386539 83.27754199 -147.07299805 82.11010742 C-144.58418855 79.2069684 -142.09629441 76.3030552 -139.61035156 73.39746094 C-133.90263585 66.72844573 -128.17962839 60.07332799 -122.41333008 53.45483398 C-119.85102957 50.50976117 -117.30750122 47.55493596 -114.82519531 44.54199219 C-88.37377274 12.60118838 -43.52824471 -31.43856484 0 0 Z " fill="#000000" transform="translate(590.5751953125,562.1376953125)"/>
<path d="M0 0 C11.8462764 8.02378605 19.23296016 18.3600133 23.7421875 31.88769531 C24.54949033 50.69972872 24.54949033 50.69972872 21.7421875 58.88769531 C21.4121875 59.87769531 21.0821875 60.86769531 20.7421875 61.88769531 C12.29346315 85.45518955 -5.60840009 104.40322515 -21.70947266 123.08935547 C-24.23074185 126.01771701 -26.74393493 128.9529888 -29.2578125 131.88769531 C-30.25777227 133.05439646 -31.25777231 134.2210631 -32.2578125 135.38769531 C-32.7528125 135.96519531 -33.2478125 136.54269531 -33.7578125 137.13769531 C-35.2578125 138.88769531 -36.7578125 140.63769531 -38.2578125 142.38769531 C-39.00019165 143.25382446 -39.00019165 143.25382446 -39.75756836 144.13745117 C-40.75832856 145.30497759 -41.75914242 146.47245801 -42.76000977 147.63989258 C-45.24881926 150.5430316 -47.73671341 153.4469448 -50.22265625 156.35253906 C-51.21346126 157.51015997 -52.20434667 158.66771207 -53.1953125 159.82519531 C-53.68193359 160.39359131 -54.16855469 160.9619873 -54.66992188 161.54760742 C-59.05372968 166.66181047 -63.46730264 171.75003877 -67.89428711 176.8269043 C-70.76056362 180.12269367 -73.5569563 183.45319308 -76.2578125 186.88769531 C-80.31776332 185.20430107 -83.37059063 182.37625654 -86.6328125 179.51269531 C-87.89182024 178.42012427 -89.15093784 177.3276798 -90.41015625 176.23535156 C-91.05065918 175.67734863 -91.69116211 175.1193457 -92.35107422 174.54443359 C-95.28438395 171.9957217 -98.24084552 169.47431034 -101.1953125 166.95019531 C-106.6992258 162.23718957 -112.17740794 157.49502448 -117.64990234 152.74560547 C-123.00891441 148.09724198 -128.3904546 143.47569779 -133.78125 138.86425781 C-136.14446811 136.84264548 -138.50344293 134.81623095 -140.859375 132.78613281 C-147.91054399 126.71511548 -155.02033505 120.73675872 -162.2578125 114.88769531 C-160.83861247 110.42735237 -158.39164523 107.55921974 -155.1953125 104.26269531 C-150.71512247 99.51784029 -146.53203274 94.62151334 -142.4375 89.53613281 C-140.28023851 86.91494412 -138.0447025 84.3961525 -135.7578125 81.88769531 C-132.66226054 78.4917085 -129.70630043 75.02598001 -126.8203125 71.45019531 C-122.95489936 66.67052793 -118.87395203 62.14264438 -114.7109375 57.62207031 C-112.38064982 55.02461589 -110.18534082 52.36363817 -108.0078125 49.63769531 C-103.67622808 44.26560574 -99.01573721 39.25630866 -94.28369141 34.23999023 C-91.25286063 31.02701222 -88.2602629 27.802821 -85.3828125 24.45019531 C-63.41071578 -0.91063275 -32.06459632 -20.34029664 0 0 Z " fill="#000000" transform="translate(453.2578125,468.1123046875)"/>
</svg>
